<?xml version="1.0" standalone="no"?>
<!DOCTYPE svg PUBLIC "-//W3C//DTD SVG 20010904//EN"
 "http://www.w3.org/TR/2001/REC-SVG-20010904/DTD/svg10.dtd">
<svg version="1.0" xmlns="http://www.w3.org/2000/svg"
 width="200.000000pt" height="200.000000pt" viewBox="0 0 200.000000 200.000000"
 preserveAspectRatio="xMidYMid meet">
<metadata>
Created by potrace 1.14, written by Peter Selinger 2001-2017
</metadata>
<g transform="translate(0.000000,200.000000) scale(0.100000,-0.100000)"
fill="#000000" stroke="none">
<path d="M803 1836 c-82 -26 -169 -111 -216 -213 -18 -39 -22 -66 -22 -138 1
-79 4 -97 29 -144 41 -79 109 -140 217 -195 220 -110 379 -89 406 54 8 43 2
155 -12 225 -30 145 -89 276 -155 343 -71 74 -154 97 -247 68z"/>
<path d="M1383 1303 c-75 -26 -98 -68 -94 -168 5 -118 119 -344 228 -451 127
-125 286 -119 392 17 59 73 84 148 85 244 0 65 -5 90 -25 135 -49 107 -112
157 -255 206 -97 33 -262 42 -331 17z"/>
<path d="M203 1119 c-76 -14 -122 -46 -169 -119 -25 -40 -28 -54 -28 -125 0
-88 20 -141 71 -190 89 -84 248 -83 340 1 l35 32 -23 16 c-29 20 -67 21 -89 1
-19 -18 -98 -30 -134 -21 -13 3 -39 18 -56 33 -53 44 -70 112 -46 181 35 98
129 131 228 81 47 -24 60 -24 89 1 l24 20 -35 31 c-56 49 -133 71 -207 58z"/>
<path d="M507 1092 c-20 -22 -22 -62 -4 -63 6 0 26 -2 42 -2 l30 -2 2 -174 c2
-199 -5 -224 -73 -270 -39 -27 -59 -71 -31 -71 56 0 146 57 178 113 23 39 24
53 27 225 3 171 5 182 23 182 22 0 53 44 45 65 -4 12 -26 15 -114 15 -93 0
-111 -3 -125 -18z"/>
<path d="M1088 930 c-98 -29 -220 -170 -311 -360 -39 -80 -41 -90 -42 -176 0
-84 2 -94 30 -140 24 -38 45 -56 93 -81 60 -31 68 -33 160 -30 84 2 106 7 163
33 125 59 191 159 195 298 6 182 -95 407 -203 453 -36 14 -46 15 -85 3z"/>
</g>
</svg>
